<svg xmlns="http://www.w3.org/2000/svg" xmlns:xlink="http://www.w3.org/1999/xlink" width="100" zoomAndPan="magnify" viewBox="0 0 75 74.999997" height="100" preserveAspectRatio="xMidYMid meet" version="1.0"><defs><clipPath id="id1"><path d="M 0 1.058594 L 75 1.058594 L 75 73.808594 L 0 73.808594 Z M 0 1.058594 " clip-rule="nonzero"/></clipPath></defs><g clip-path="url(#id1)"><path fill="#ffffff" d="M 62.164062 40.003906 L 62.164062 72.347656 C 62.164062 73.15625 61.507812 73.808594 60.703125 73.808594 L 14.144531 73.808594 C 13.351562 73.808594 12.699219 73.15625 12.699219 72.347656 L 12.699219 40.003906 L 1.445312 40.003906 C 0.65625 40.003906 0.00390625 39.351562 0.00390625 38.5625 C 0.00390625 38.117188 0.191406 37.742188 0.484375 37.464844 L 35.328125 1.640625 C 35.894531 1.058594 36.804688 1.058594 37.371094 1.605469 L 74.410156 37.515625 C 74.980469 38.066406 74.996094 38.992188 74.429688 39.558594 C 74.152344 39.851562 73.777344 40.003906 73.398438 40.003906 Z M 30.019531 48.714844 L 44.777344 48.714844 C 45.582031 48.714844 46.234375 49.367188 46.234375 50.175781 L 46.234375 50.292969 L 46.269531 70.890625 L 59.242188 70.890625 L 59.242188 38.5625 C 59.242188 37.757812 59.894531 37.105469 60.703125 37.105469 L 69.824219 37.105469 L 36.390625 4.691406 L 4.882812 37.105469 L 14.144531 37.105469 C 14.949219 37.105469 15.605469 37.757812 15.605469 38.5625 L 15.605469 70.890625 L 28.574219 70.890625 L 28.574219 50.175781 C 28.574219 49.367188 29.226562 48.734375 30.019531 48.734375 Z M 43.332031 51.632812 L 31.476562 51.632812 L 31.460938 70.890625 L 43.382812 70.890625 Z M 43.332031 51.632812 " fill-opacity="1" fill-rule="nonzero"/></g></svg>